# xmcd
#
# Track frame offsets: 
#        150
#        21420
#        39075
#        53616
#        71430
#        89637
#        107060
#        124563
#        139691
#        153330
#        176852
#        191387
#        209812
#        228243
#        241142
#        258291
#
# Disc length: 3660 seconds
#
# Revision: 1
# Processed by: cddbd v1.5.2PL0 Copyright (c) Steve Scherf et al.
# Submitted via: ExactAudioCopy v0.99pb5
#
DISCID=d60e4a10
DTITLE=Various Artist - Z³ote przeboje Sceny Country 3
DYEAR=1999
DGENRE=Country
TTITLE0=Cezary Makiewicz - Wszystkie drogi prowadz¹ do Mr¹gowa
TTITLE1=Lonstar - Jadê na po³udnie
TTITLE2=Colorado band - Wracam do £odzi
TTITLE3=Whiskey river - Tylko szosa
TTITLE4=Johnny walker - Los kierowcy
TTITLE5=Zayazd - Costerina
TTITLE6=Mariusz Kalaga - Wymeldujê siê z tego miasta
TTITLE7=Cezary Makiewicz - Ona jedzie gdzie chce
TTITLE8=Lonstar - Dla kierowców ze stu tysiêcy szos
TTITLE9=Whiskey river - W drogê
TTITLE10=Colorado band - Koszykowy romans
TTITLE11=Johnny walker - ¯ycie w biegu
TTITLE12=Coach - Obok siebie
TTITLE13=Zayazd - Hej Stary !
TTITLE14=Lonstar - 2000 koni
TTITLE15=Mariusz Kalaga - To do ciebie przyszed³ blues
EXTD=YEAR: 1999
EXTT0=
EXTT1=
EXTT2=
EXTT3=
EXTT4=
EXTT5=
EXTT6=
EXTT7=
EXTT8=
EXTT9=
EXTT10=
EXTT11=
EXTT12=
EXTT13=
EXTT14=
EXTT15=
PLAYORDER=
